<svg width="1024" height="1024" viewBox="0 0 1024 1024" fill="none" xmlns="http://www.w3.org/2000/svg">
<rect width="1024" height="1024" fill="#1C274C"/>
<path d="M610.389 400.529C609.087 400.041 607.866 399.797 606.727 399.797C605.587 399.634 604.367 399.553 603.064 399.553C598.833 399.553 594.601 400.204 590.369 401.506C586.3 402.808 582.15 403.459 577.918 403.459C575.965 403.459 573.93 403.296 571.814 402.971C569.699 402.645 567.583 402.32 565.467 401.994C564.002 402.971 562.374 403.459 560.584 403.459C558.794 403.459 557.573 402.971 556.922 401.994C556.434 401.018 555.457 400.529 553.992 400.529C552.527 400.529 551.144 400.855 549.842 401.506C548.702 401.994 547.482 402.482 546.18 402.971C545.04 403.459 543.82 403.866 542.518 404.191C541.215 404.354 539.669 404.11 537.879 403.459C537.553 404.436 537.391 405.575 537.391 406.877C537.391 408.016 537.391 409.074 537.391 410.051C537.391 414.608 537.716 419.247 538.367 423.967C539.181 428.524 539.588 433.163 539.588 437.883C539.588 441.138 539.018 444.475 537.879 447.893C536.902 451.148 536.414 454.484 536.414 457.902C536.414 461.971 536.902 466.04 537.879 470.109C539.018 474.178 539.588 478.329 539.588 482.561C539.588 485.816 539.018 489.071 537.879 492.326C536.902 495.581 536.414 498.837 536.414 502.092C536.414 504.859 536.821 507.544 537.635 510.148C538.611 512.59 539.262 515.194 539.588 517.961C540.402 524.471 540.89 530.9 541.053 537.248C541.378 543.596 541.541 550.025 541.541 556.535C541.541 562.72 541.215 569.068 540.564 575.578C539.913 581.926 539.588 588.273 539.588 594.621C539.588 598.853 540.158 602.922 541.297 606.828C542.436 610.572 543.006 614.315 543.006 618.059C543.006 620.012 542.762 621.883 542.273 623.674C541.785 625.464 541.541 627.417 541.541 629.533C541.215 633.602 541.134 637.671 541.297 641.74C541.46 645.646 541.541 649.715 541.541 653.947C541.541 658.667 541.053 663.225 540.076 667.619C539.1 672.014 538.611 676.49 538.611 681.047C538.611 682.674 538.042 684.221 536.902 685.686C535.926 687.15 534.624 688.452 532.996 689.592C531.531 690.731 529.904 691.626 528.113 692.277C526.486 693.091 524.939 693.498 523.475 693.498C520.708 693.498 518.022 693.335 515.418 693.01C512.977 692.684 510.535 692.521 508.094 692.521C506.792 692.521 505.49 692.521 504.188 692.521C503.048 692.684 501.99 693.173 501.014 693.986C494.992 689.917 490.76 684.79 488.318 678.605C486.04 672.258 484.9 665.585 484.9 658.586C484.9 653.54 485.307 648.576 486.121 643.693C487.098 638.811 488.074 633.928 489.051 629.045C490.19 624.162 491.167 619.361 491.98 614.641C492.957 609.758 493.445 604.712 493.445 599.504C493.445 597.062 493.445 594.54 493.445 591.936C493.445 589.169 493.283 586.483 492.957 583.879C492.469 581.438 491.492 578.915 490.027 576.311C488.725 573.544 488.074 570.939 488.074 568.498C488.074 567.521 488.318 566.464 488.807 565.324C489.295 564.022 489.539 562.72 489.539 561.418C489.539 560.116 489.295 558.895 488.807 557.756C488.318 556.454 488.074 555.07 488.074 553.605C488.074 550.025 488.888 546.525 490.516 543.107C492.143 539.527 492.957 535.865 492.957 532.121C492.957 529.191 492.632 526.343 491.98 523.576C491.329 520.646 490.597 517.798 489.783 515.031C488.969 512.102 488.237 509.172 487.586 506.242C486.935 503.312 486.609 500.383 486.609 497.453C486.609 495.012 486.854 492.57 487.342 490.129C487.83 487.525 488.074 485.002 488.074 482.561C488.074 479.956 487.83 477.515 487.342 475.236C486.854 472.958 486.609 470.516 486.609 467.912C486.609 466.447 486.854 464.982 487.342 463.518C487.83 461.89 488.074 460.181 488.074 458.391C488.074 455.135 487.505 451.962 486.365 448.869C485.389 445.614 484.9 442.359 484.9 439.104C484.9 435.848 485.47 432.593 486.609 429.338C487.911 426.083 488.562 422.827 488.562 419.572C488.562 415.829 487.911 412.655 486.609 410.051C483.029 408.749 479.285 407.935 475.379 407.609C471.473 407.284 467.648 407.121 463.904 407.121C457.394 407.121 450.965 407.365 444.617 407.854C438.432 408.342 432.085 408.586 425.574 408.586C421.831 408.586 417.762 408.179 413.367 407.365C409.135 406.551 405.148 405.249 401.404 403.459C397.824 401.506 394.812 398.983 392.371 395.891C390.092 392.635 388.953 388.648 388.953 383.928C388.953 379.696 389.848 375.464 391.639 371.232C393.592 366.838 395.057 362.606 396.033 358.537C402.544 355.282 409.461 353.085 416.785 351.945C424.109 350.643 431.515 349.829 439.002 349.504C446.489 349.178 453.895 349.097 461.219 349.26C468.706 349.423 475.949 349.341 482.947 349.016C484.412 347.714 485.307 346.086 485.633 344.133C486.121 342.017 486.447 339.901 486.609 337.785C486.772 335.507 486.935 333.309 487.098 331.193C487.423 329.077 488.237 327.368 489.539 326.066V325.09C489.539 324.439 490.353 323.625 491.98 322.648C493.771 321.509 495.805 320.451 498.084 319.475C500.363 318.498 502.56 317.684 504.676 317.033C506.792 316.382 508.257 316.057 509.07 316.057C514.116 316.057 517.859 316.626 520.301 317.766C522.742 318.905 524.533 320.207 525.672 321.672C526.974 323.137 528.032 324.52 528.846 325.822C529.66 327.124 531.043 327.857 532.996 328.02C534.298 330.949 535.356 334.123 536.17 337.541C537.146 340.796 538.286 343.97 539.588 347.062C542.518 346.737 545.366 346.167 548.133 345.354C551.062 344.377 554.155 343.889 557.41 343.889C559.201 343.889 560.991 344.377 562.781 345.354C564.734 346.167 566.606 346.737 568.396 347.062L572.059 345.598L573.523 347.062C576.779 347.876 580.197 348.12 583.777 347.795C587.358 347.307 590.776 347.062 594.031 347.062C599.24 347.062 604.285 347.632 609.168 348.771C614.214 349.911 618.608 351.783 622.352 354.387C626.258 356.828 629.35 360.083 631.629 364.152C633.908 368.221 635.047 373.186 635.047 379.045C635.047 381.812 634.07 384.253 632.117 386.369C630.327 388.322 628.13 390.113 625.525 391.74C622.921 393.205 620.236 394.67 617.469 396.135C614.702 397.6 612.342 399.064 610.389 400.529Z" fill="white"/>
<path d="M180.872 139.594C184.839 133.184 194.161 133.184 198.128 139.594L225.959 184.568C227.279 186.701 229.05 188.518 231.149 189.892L275.638 219.011C281.758 223.016 281.758 231.984 275.638 235.989L231.149 265.108C229.05 266.482 227.279 268.299 225.959 270.432L198.128 315.406C194.161 321.816 184.839 321.816 180.872 315.406L153.041 270.432C151.721 268.299 149.95 266.482 147.851 265.108L103.362 235.989C97.242 231.984 97.242 223.016 103.362 219.011L147.851 189.892C149.95 188.518 151.721 186.701 153.041 184.568L180.872 139.594Z" fill="#3DA4DF" stroke="white" stroke-width="7"/>
<path d="M303.372 742.594C307.339 736.184 316.661 736.184 320.628 742.594L336.597 768.4C337.917 770.532 339.689 772.35 341.787 773.723L367.638 790.643C373.758 794.649 373.758 803.617 367.638 807.622L341.787 824.542C339.689 825.916 337.917 827.733 336.597 829.866L320.628 855.672C316.661 862.081 307.339 862.081 303.372 855.672L287.403 829.866C286.083 827.733 284.311 825.916 282.213 824.542L256.362 807.622C250.242 803.617 250.242 794.649 256.362 790.643L282.213 773.723C284.311 772.35 286.083 770.532 287.403 768.4L303.372 742.594Z" fill="#34A853" stroke="white" stroke-width="7"/>
<path d="M781.499 344.897C782.385 337.412 790.835 333.471 797.138 337.604L841.369 366.603C843.466 367.978 845.84 368.876 848.323 369.234L900.95 376.823C908.189 377.867 911.979 385.995 908.125 392.211L880.11 437.404C878.789 439.536 877.951 441.931 877.656 444.422L871.44 496.945C870.554 504.43 862.104 508.37 855.801 504.237L811.571 475.239C809.473 473.863 807.099 472.965 804.617 472.607L751.989 465.018C744.75 463.974 740.96 455.847 744.814 449.63L772.829 404.438C774.15 402.306 774.988 399.91 775.283 397.419L781.499 344.897Z" fill="#FFB300" stroke="white" stroke-width="7"/>
</svg>
